<svg xmlns="http://www.w3.org/2000/svg" xmlns:xlink="http://www.w3.org/1999/xlink" version="1.1" x="0px" y="0px" viewBox="0 0 100 125" style="enable-background:new 0 0 100 100;" xml:space="preserve"><g><path d="M577.826,69.532c-5.164-3.295-31.459-20.299-46.14-29.797c1.145-9.545-3.039-19.349-11.659-24.916   c-8.588-5.547-19.214-5.357-27.436-0.437l23.325,15.079l-0.65,13.189l-11.75,6.022l-23.34-15.078   c-1.114,9.518,3.086,19.283,11.674,24.836c8.613,5.56,19.263,5.352,27.493,0.397c14.719,9.518,41.133,26.594,46.138,29.811   C572.487,93.146,585.065,74.16,577.826,69.532z"/><g><rect x="59.01" y="18.797" transform="matrix(0.9758 -0.2188 0.2188 0.9758 -4.0832 14.6793)" width="10.472" height="13.962"/><rect x="61.844" y="40.979" transform="matrix(-0.2187 -0.9758 0.9758 -0.2187 38.7846 123.4848)" width="13.967" height="10.474"/><rect x="66.426" y="61.416" transform="matrix(-0.2187 -0.9758 0.9758 -0.2187 24.4232 152.8622)" width="13.961" height="10.476"/><rect x="30.702" y="68.066" transform="matrix(-0.9758 0.2186 -0.2186 -0.9758 87.4128 140.4279)" width="10.472" height="13.968"/><path d="M71.352,81.424l2.762,12.333c3.363-1.851,6.465-4.056,9.261-6.57l-1.805-8.05L71.352,81.424z"/><path d="M89.155,81.047c9.044-11.421,13.059-26.659,9.627-41.98C95.347,23.749,85.213,11.68,72.159,5.211L89.155,81.047z"/><path d="M44.101,87.53l-10.219,2.292l1.807,8.054c3.601,1.082,7.352,1.75,11.179,1.99L44.101,87.53z"/><path d="M10.846,18.946C1.8,30.367-2.215,45.609,1.218,60.931c3.435,15.32,13.569,27.391,26.622,33.858L10.846,18.946z"/><polygon points="37.994,60.278 34.942,46.656 24.726,48.944 27.775,62.572   "/><path d="M28.835,19.401L25.886,6.237c-3.36,1.852-6.465,4.053-9.261,6.571l1.993,8.885L28.835,19.401z"/><path d="M56.083,13.296l10.223-2.289l-1.991-8.883c-3.602-1.082-7.346-1.752-11.179-1.99L56.083,13.296z"/><polygon points="33.417,39.841 30.362,26.218 20.14,28.505 23.196,42.13   "/></g><g><polygon points="414.564,54.569 396.459,59.42 383.21,46.166 388.061,28.066 406.166,23.215 419.415,36.464   "/><path d="M361.751,36.855l32.233,32.233l27.683-7.419l7.416-27.685L396.85,1.753c16.738-4.538,35.358-0.273,48.497,12.861    c19.538,19.531,19.538,51.202,0,70.737c-19.531,19.531-51.206,19.531-70.737,0C361.471,72.21,357.213,53.59,361.751,36.855z"/></g><path d="M175.808,0.345c-27.43-3.206-52.261,16.425-55.464,43.854c-3.209,27.419,16.426,52.253,43.851,55.457   c27.424,3.209,52.248-16.426,55.464-43.851C222.861,28.385,203.233,3.547,175.808,0.345z M198.09,65.746l-19.729-7.461   l-7.709,3.585l-7.421,19.605l-8.972-3.401l7.363-19.479l-3.737-8.043l-19.358-7.317l3.398-8.979l19.65,7.422l7.813-3.62   l7.382-19.533l8.979,3.395l-7.52,19.896l3.477,7.474l19.769,7.476L198.09,65.746z"/><path d="M289.997,0C262.384,0,240,22.39,240,50c0,27.617,22.384,50,49.997,50C317.617,100,340,77.617,340,50   C340,22.39,317.617,0,289.997,0z M267.81,70.873c-3.337,1.924-7.604,0.781-9.531-2.559c-1.931-3.334-0.781-7.602,2.553-9.528   c3.339-1.927,7.604-0.784,9.53,2.556C272.291,64.678,271.146,68.946,267.81,70.873z M270.361,38.667   c-1.927,3.336-6.191,4.479-9.53,2.552c-3.334-1.928-4.483-6.191-2.553-9.532c1.927-3.332,6.194-4.479,9.531-2.552   C271.146,31.061,272.291,35.327,270.361,38.667z M289.997,86.628c-3.851,0-6.977-3.122-6.977-6.974   c0-3.854,3.126-6.979,6.977-6.979c3.857,0,6.982,3.125,6.982,6.979C296.979,83.506,293.854,86.628,289.997,86.628z M289.997,27.329   c-3.851,0-6.977-3.125-6.977-6.977c0-3.854,3.126-6.976,6.977-6.976c3.857,0,6.982,3.121,6.982,6.976   C296.979,24.204,293.854,27.329,289.997,27.329z M321.723,68.317c-1.927,3.337-6.195,4.479-9.531,2.552   c-3.34-1.923-4.482-6.194-2.552-9.527c1.927-3.34,6.19-4.482,9.53-2.556C322.504,60.713,323.646,64.98,321.723,68.317z    M319.17,41.218c-3.34,1.927-7.607,0.784-9.53-2.552c-1.931-3.34-0.788-7.605,2.552-9.532c3.336-1.927,7.604-0.78,9.531,2.552   C323.646,35.024,322.504,39.291,319.17,41.218z"/></g><text x="0" y="115" fill="#000000" font-size="5px" font-weight="bold" font-family="'Helvetica Neue', Helvetica, Arial-Unicode, Arial, Sans-serif">Created by Erin Standley</text><text x="0" y="120" fill="#000000" font-size="5px" font-weight="bold" font-family="'Helvetica Neue', Helvetica, Arial-Unicode, Arial, Sans-serif">from the Noun Project</text></svg>